<svg xmlns="http://www.w3.org/2000/svg" xmlns:xlink="http://www.w3.org/1999/xlink" viewBox="0,0,256,256" width="48px" height="48px"><g fill="none" fill-rule="nonzero" stroke="none" stroke-width="1" stroke-linecap="butt" stroke-linejoin="miter" stroke-miterlimit="10" stroke-dasharray="" stroke-dashoffset="0" font-family="none" font-weight="none" font-size="none" text-anchor="none" style="mix-blend-mode: normal"><g transform="scale(5.33333,5.33333)"><path d="M13.083,42h21.834c3.912,0 7.083,-3.171 7.083,-7.083v-21.834c0,-3.912 -3.171,-7.083 -7.083,-7.083h-21.834c-3.912,0 -7.083,3.171 -7.083,7.083v21.834c0,3.912 3.171,7.083 7.083,7.083z" fill-opacity="0" fill="#37474f"></path><path d="M24.715,9.018c-4.158,-0.206 -8.079,1.274 -11.072,4.132c-2.994,2.858 -4.643,6.711 -4.643,10.85c0,7.417 5.529,13.8 12.86,14.848c0.046,0.007 0.093,0.01 0.139,0.01c0.237,0 0.468,-0.086 0.651,-0.244c0.223,-0.193 0.35,-0.471 0.35,-0.763v-2.432c0,-0.438 0.19,-0.853 0.516,-1.132l4.912,-4.057c1.082,-0.928 1.664,-2.331 1.557,-3.757l-0.986,-12.015c-0.022,-0.259 -0.239,-0.458 -0.499,-0.458c-1.103,0 -2,0.897 -2,2v7.5c0,0.275 -0.224,0.5 -0.5,0.5c-0.276,0 -0.5,-0.225 -0.5,-0.5v-8c0,-0.827 -0.673,-1.5 -1.5,-1.5c-0.827,0 -1.5,0.673 -1.5,1.5v8c0,0.275 -0.224,0.5 -0.5,0.5c-0.276,0 -0.5,-0.225 -0.5,-0.5v-7.5c0,-1.103 -0.897,-2 -2,-2c-0.26,0 -0.477,0.199 -0.499,0.459l-0.986,12.018c-0.107,1.423 0.475,2.826 1.565,3.761l3.648,2.99l-0.357,0.295c-0.553,0.475 -0.871,1.166 -0.871,1.896l0.002,2.438c-6.842,-0.977 -12.002,-6.934 -12.002,-13.857c0,-3.862 1.539,-7.459 4.334,-10.128c2.793,-2.666 6.465,-4.023 10.334,-3.856c7.255,0.338 13.235,6.526 13.33,13.796c0.093,7.016 -5.065,13.054 -11.998,14.037v-3.349c0,-0.276 -0.224,-0.5 -0.5,-0.5c-0.276,0 -0.5,0.224 -0.5,0.5v3.349c0,0.293 0.127,0.571 0.35,0.764c0.22,0.19 0.511,0.278 0.792,0.235c7.428,-1.062 12.956,-7.532 12.857,-15.05c-0.103,-7.789 -6.51,-14.42 -14.284,-14.78zM20.224,29.471c-0.842,-0.722 -1.294,-1.812 -1.211,-2.915l0.939,-11.447c0.325,0.164 0.548,0.502 0.548,0.891v7.5c0,0.827 0.673,1.5 1.5,1.5c0.827,0 1.5,-0.673 1.5,-1.5v-8c0,-0.275 0.224,-0.5 0.5,-0.5c0.276,0 0.5,0.225 0.5,0.5v8c0,0.827 0.673,1.5 1.5,1.5c0.827,0 1.5,-0.673 1.5,-1.5v-7.5c0,-0.389 0.223,-0.727 0.548,-0.892l0.939,11.444c0.083,1.105 -0.369,2.196 -1.204,2.912l-3.769,3.113z" fill="#f8b602"></path></g></g></svg>